<svg width="28" height="28" viewBox="0 0 28 28" fill="none" xmlns="http://www.w3.org/2000/svg">
<path d="M22.5516 6.62674L15.2366 2.68341C14.4666 2.26341 13.5333 2.26341 12.7633 2.68341L5.44829 6.62674C4.91163 6.91841 4.58496 7.47841 4.58496 8.12008C4.58496 8.75007 4.91163 9.32174 5.44829 9.61341L12.7633 13.5567C13.1483 13.7667 13.58 13.8717 14 13.8717C14.42 13.8717 14.8516 13.7667 15.2366 13.5567L22.5516 9.61341C23.0883 9.32174 23.415 8.76174 23.415 8.12008C23.415 7.47841 23.0883 6.91841 22.5516 6.62674Z" fill="#204198"/>
<path d="M11.5617 14.9217L4.74837 11.5151C4.22337 11.2584 3.61671 11.2817 3.12671 11.5851C2.62504 11.9001 2.33337 12.4251 2.33337 13.0084V19.4367C2.33337 20.5451 2.95171 21.5484 3.94337 22.0501L10.745 25.4567C10.9784 25.5734 11.235 25.6317 11.4917 25.6317C11.795 25.6317 12.0984 25.5501 12.3667 25.3867C12.8684 25.0834 13.16 24.5467 13.16 23.9634V17.5351C13.1717 16.4151 12.5534 15.4117 11.5617 14.9217Z" fill="#204198"/>
<path d="M24.8733 11.5849C24.3716 11.2816 23.765 11.2466 23.2516 11.5149L16.45 14.9216C15.4583 15.4233 14.84 16.4149 14.84 17.5349V23.9633C14.84 24.5466 15.1316 25.0833 15.6333 25.3866C15.9016 25.5499 16.205 25.6316 16.5083 25.6316C16.765 25.6316 17.0216 25.5733 17.255 25.4566L24.0566 22.0499C25.0483 21.5483 25.6666 20.5566 25.6666 19.4366V13.0083C25.6666 12.4249 25.375 11.8999 24.8733 11.5849Z" fill="#204198"/>
</svg>
