<svg width="28" height="28" viewBox="0 0 28 28" fill="none" xmlns="http://www.w3.org/2000/svg">
<path d="M14 21.5833V22.61C14 24.7917 13.125 25.6667 10.9317 25.6667H5.39004C3.69837 25.6667 2.33337 24.3017 2.33337 22.61V17.0683C2.33337 14.875 3.20837 14 5.39004 14H6.41671V18.0833C6.41671 20.02 7.98004 21.5833 9.91671 21.5833H14Z" fill="#204198"/>
<path d="M19.8333 15.7501V16.7651C19.8333 18.4567 18.4566 19.8334 16.765 19.8334H11.2233C9.04163 19.8334 8.16663 18.9584 8.16663 16.7651V11.2234C8.16663 9.53175 9.53163 8.16675 11.2233 8.16675H12.25V12.2501C12.25 14.1867 13.8133 15.7501 15.75 15.7501H19.8333Z" fill="#204198"/>
<path d="M25.6667 5.38992V10.9316C25.6667 13.1249 24.7917 13.9999 22.5983 13.9999H17.0567C14.875 13.9999 14 13.1249 14 10.9316V5.38992C14 3.20825 14.875 2.33325 17.0567 2.33325H22.5983C24.7917 2.33325 25.6667 3.20825 25.6667 5.38992Z" fill="#204198"/>
</svg>
