<svg width="28" height="28" viewBox="0 0 28 28" fill="none" xmlns="http://www.w3.org/2000/svg">
<path d="M18.8884 2.33325H9.11171C4.86504 2.33325 2.33337 4.86492 2.33337 9.11159V18.8766C2.33337 23.1349 4.86504 25.6666 9.11171 25.6666H18.8767C23.1234 25.6666 25.655 23.1349 25.655 18.8883V9.11159C25.6667 4.86492 23.135 2.33325 18.8884 2.33325ZM18.6667 14.8749H14.875V18.6666C14.875 19.1449 14.4784 19.5416 14 19.5416C13.5217 19.5416 13.125 19.1449 13.125 18.6666V14.8749H9.33337C8.85504 14.8749 8.45837 14.4783 8.45837 13.9999C8.45837 13.5216 8.85504 13.1249 9.33337 13.1249H13.125V9.33325C13.125 8.85492 13.5217 8.45825 14 8.45825C14.4784 8.45825 14.875 8.85492 14.875 9.33325V13.1249H18.6667C19.145 13.1249 19.5417 13.5216 19.5417 13.9999C19.5417 14.4783 19.145 14.8749 18.6667 14.8749Z" fill="#333333"/>
</svg>
