<svg width="15" height="16" viewBox="0 0 15 16" fill="none" xmlns="http://www.w3.org/2000/svg">
<path d="M13.7312 11.9563C13.7312 12.1812 13.6812 12.4125 13.575 12.6375C13.4688 12.8625 13.3313 13.075 13.15 13.275C12.8438 13.6125 12.5062 13.8563 12.125 14.0125C11.75 14.1688 11.3438 14.25 10.9062 14.25C10.2688 14.25 9.5875 14.1 8.86875 13.7938C8.15 13.4875 7.43125 13.075 6.71875 12.5563C6 12.0313 5.31875 11.45 4.66875 10.8062C4.025 10.1562 3.44375 9.475 2.925 8.7625C2.4125 8.05 2 7.3375 1.7 6.63125C1.4 5.91875 1.25 5.2375 1.25 4.5875C1.25 4.1625 1.325 3.75625 1.475 3.38125C1.625 3 1.8625 2.65 2.19375 2.3375C2.59375 1.94375 3.03125 1.75 3.49375 1.75C3.66875 1.75 3.84375 1.7875 4 1.8625C4.1625 1.9375 4.30625 2.05 4.41875 2.2125L5.86875 4.25625C5.98125 4.4125 6.0625 4.55625 6.11875 4.69375C6.175 4.825 6.20625 4.95625 6.20625 5.075C6.20625 5.225 6.1625 5.375 6.075 5.51875C5.99375 5.6625 5.875 5.8125 5.725 5.9625L5.25 6.45625C5.18125 6.525 5.15 6.60625 5.15 6.70625C5.15 6.75625 5.15625 6.8 5.16875 6.85C5.1875 6.9 5.20625 6.9375 5.21875 6.975C5.33125 7.18125 5.525 7.45 5.8 7.775C6.08125 8.1 6.38125 8.43125 6.70625 8.7625C7.04375 9.09375 7.36875 9.4 7.7 9.68125C8.025 9.95625 8.29375 10.1438 8.50625 10.2562C8.5375 10.2688 8.575 10.2875 8.61875 10.3062C8.66875 10.325 8.71875 10.3312 8.775 10.3312C8.88125 10.3312 8.9625 10.2937 9.03125 10.225L9.50625 9.75625C9.6625 9.6 9.8125 9.48125 9.95625 9.40625C10.1 9.31875 10.2437 9.275 10.4 9.275C10.5187 9.275 10.6438 9.3 10.7812 9.35625C10.9187 9.4125 11.0625 9.49375 11.2188 9.6L13.2875 11.0688C13.45 11.1812 13.5625 11.3125 13.6312 11.4688C13.6937 11.625 13.7312 11.7812 13.7312 11.9563Z" fill="#FDD303"/>
</svg>
