<svg width="28" height="28" viewBox="0 0 28 28" fill="none" xmlns="http://www.w3.org/2000/svg">
<path d="M14 25.6667C20.4283 25.6667 25.6666 20.4284 25.6666 14.0001C25.6666 7.57175 20.4283 2.33341 14 2.33341C7.57163 2.33341 2.33329 7.57174 2.33329 14.0001C2.33329 20.4284 7.57162 25.6667 14 25.6667ZM14.875 18.6667C14.875 19.1451 14.4783 19.5417 14 19.5417C13.5216 19.5417 13.125 19.1451 13.125 18.6667L13.125 12.8334C13.125 12.3551 13.5216 11.9584 14 11.9584C14.4783 11.9584 14.875 12.3551 14.875 12.8334L14.875 18.6667ZM12.9266 8.89008C12.985 8.73841 13.0666 8.62175 13.1716 8.50508C13.2883 8.40008 13.4166 8.31841 13.5566 8.26008C13.6966 8.20174 13.8483 8.16675 14 8.16675C14.1516 8.16675 14.3033 8.20174 14.4433 8.26008C14.5833 8.31841 14.7116 8.40008 14.8283 8.50508C14.9333 8.62175 15.015 8.73841 15.0733 8.89008C15.1316 9.03008 15.1666 9.18175 15.1666 9.33341C15.1666 9.48508 15.1316 9.63675 15.0733 9.77675C15.015 9.91675 14.9333 10.0451 14.8283 10.1617C14.7116 10.2667 14.5833 10.3484 14.4433 10.4067C14.1633 10.5234 13.8366 10.5234 13.5566 10.4067C13.4166 10.3484 13.2883 10.2667 13.1716 10.1617C13.0666 10.0451 12.985 9.91675 12.9266 9.77675C12.8683 9.63675 12.8333 9.48508 12.8333 9.33341C12.8333 9.18175 12.8683 9.03008 12.9266 8.89008Z" fill="#204198"/>
</svg>
