<svg width="28" height="28" viewBox="0 0 28 28" fill="none" xmlns="http://www.w3.org/2000/svg">
<path d="M23.45 10.7568C21.3384 10.7568 20.475 9.26342 21.525 7.43176C22.1317 6.37009 21.77 5.01676 20.7084 4.41009L18.69 3.25509C17.7684 2.70676 16.5784 3.03342 16.03 3.95509L15.9017 4.17676C14.8517 6.00842 13.125 6.00842 12.0634 4.17676L11.935 3.95509C11.41 3.03342 10.22 2.70676 9.29837 3.25509L7.28004 4.41009C6.21837 5.01676 5.85671 6.38176 6.46337 7.44342C7.52504 9.26342 6.66171 10.7568 4.55004 10.7568C3.33671 10.7568 2.33337 11.7484 2.33337 12.9734V15.0268C2.33337 16.2401 3.32504 17.2434 4.55004 17.2434C6.66171 17.2434 7.52504 18.7368 6.46337 20.5684C5.85671 21.6301 6.21837 22.9834 7.28004 23.5901L9.29837 24.7451C10.22 25.2934 11.41 24.9668 11.9584 24.0451L12.0867 23.8234C13.1367 21.9918 14.8634 21.9918 15.925 23.8234L16.0534 24.0451C16.6017 24.9668 17.7917 25.2934 18.7134 24.7451L20.7317 23.5901C21.7934 22.9834 22.155 21.6184 21.5484 20.5684C20.4867 18.7368 21.35 17.2434 23.4617 17.2434C24.675 17.2434 25.6784 16.2518 25.6784 15.0268V12.9734C25.6667 11.7601 24.675 10.7568 23.45 10.7568ZM14 17.7918C11.9117 17.7918 10.2084 16.0884 10.2084 14.0001C10.2084 11.9118 11.9117 10.2084 14 10.2084C16.0884 10.2084 17.7917 11.9118 17.7917 14.0001C17.7917 16.0884 16.0884 17.7918 14 17.7918Z" fill="#204198"/>
</svg>
