<svg width="280" height="48" viewBox="0 0 280 48" fill="none" xmlns="http://www.w3.org/2000/svg">
<g clip-path="url(#clip0_187_899)">
<path d="M157.6 0L136.984 32.6769C131.979 40.3282 123.897 45.7026 114.851 47.2615C113.559 47.4872 112.225 47.5077 110.995 47.9179H-0.0411482C-0.225764 47.7128 0.6768 46.3385 0.840903 46.0718C8.34859 33.3333 16.3896 20.841 24.1435 8.24615C25.8255 5.51795 27.5076 2.76923 29.0871 0H157.6Z" fill="#FDFDFD"/>
<path d="M138.01 1.64107C142.482 1.64107 147.754 1.29235 152.123 1.64107C152.266 1.64107 152.841 1.6821 152.779 1.88722L136.718 27.159C132.41 32.8411 125.805 36.3283 118.687 36.8206H10.4819C10.2973 36.8 10.8511 36 10.8922 35.8975C11.2819 35.2616 11.8152 34.6052 12.1639 34.0513H107.097C115.364 33.6411 120.964 29.518 125.231 22.7693C129.436 16.1231 133.436 9.29235 137.538 2.56415C137.723 2.27697 137.928 1.98979 138.01 1.64107Z" fill="#FDD303"/>
<path d="M138.01 1.64111L138.174 1.84624C133.969 8.96419 129.538 16.2873 125.108 23.3642C121.108 29.7437 114.79 34.0514 107.118 34.2565H12.2871L12.1641 34.0514C12.1846 34.0103 12.1641 33.8668 12.2256 33.7642C18.7077 23.0975 25.3333 12.5334 31.8153 1.86675L32.041 1.68214C67.3641 1.68214 102.687 1.64111 138.031 1.68214L138.01 1.64111Z" fill="#204198"/>
<path d="M93.6001 7.58984L90.9744 11.7745H73.4565L73.2103 11.9591L71.1385 15.2822H85.1898L82.4616 19.5693H68.4514L66.236 23.2822H83.877C83.918 23.4463 83.8155 23.5078 83.7539 23.6104C82.7283 25.5796 80.9027 27.5898 78.5027 27.5898H57.6411L68.7385 9.6001C69.2309 8.73856 70.9744 7.58984 71.9591 7.58984H93.6411H93.6001Z" fill="#FBD204"/>
<path d="M83.959 27.5898L96.3282 7.61032H96.6154C101.087 7.85648 105.949 7.24109 110.359 7.58981C112.554 7.75391 114.523 9.31289 115.323 11.3437C117.415 16.5744 111.815 21.559 106.872 21.6616H94.4821C93.1282 23.4257 92.3077 26.1129 90.1744 27.118C88.041 28.1231 88.7385 27.6103 88.3077 27.6103H83.959V27.5898Z" fill="#FCD303"/>
<path d="M97.4974 16.923C97.4563 16.7589 97.5384 16.6769 97.5999 16.5538C98.3179 15.0564 99.6717 13.5179 100.431 12L100.923 11.7743C103.241 11.9384 105.826 11.5692 108.102 11.7743C110.379 11.9794 110.831 13.8256 109.497 15.4256C108.964 16.041 107.59 16.9025 106.769 16.9025H97.4974V16.923Z" fill="#224296"/>
<path d="M31.5488 27.5898L43.7745 7.61035H57.9693C67.8155 9.94881 62.6668 21.6411 54.4822 21.6411H42.0924C40.5334 23.6514 39.795 26.5437 37.1078 27.3232C36.8616 27.3847 36.1232 27.5693 35.9181 27.5693H31.5693L31.5488 27.5898Z" fill="#FCD303"/>
<path d="M45.0872 16.9232C45.0462 16.7591 45.1282 16.677 45.1898 16.554C45.5795 15.6719 47.3231 12.8617 47.918 12.1027C48.5129 11.3437 48.0616 11.8976 48.1641 11.836L48.5129 11.7745C50.8103 11.9181 53.3129 11.5899 55.5898 11.7745C57.8667 11.9591 58.3385 14.6463 56.3898 16.0617C56 16.3488 54.8103 16.9027 54.359 16.9027H45.0872V16.9232Z" fill="#224296"/>
<path d="M106.831 44.7178H105.908V41.6819C105.908 41.6614 105.702 41.1691 105.682 41.1486C105.354 40.7999 104.267 41.1486 104.267 41.5793V44.6973H103.241V41.4563C103.241 40.7588 101.6 40.9845 101.6 41.4563V44.6973C101.272 44.6563 100.82 44.8204 100.574 44.5332V40.2665H101.6L101.641 40.6768C102.031 40.205 102.584 40.0819 103.179 40.164C103.774 40.246 103.959 40.6768 104.102 40.6768C104.328 40.6768 104.779 40.0409 105.743 40.164C106.708 40.287 106.831 40.7383 106.831 41.1281V44.6563V44.7178Z" fill="#24449B"/>
<path d="M84.2667 40.5128L83.2411 40.4718C83.118 39.6102 82.2565 39.4051 81.4975 39.6307C80.7385 39.8564 80.9231 40.4512 81.1898 40.7589C81.7436 41.4359 84.0001 41.2307 84.2462 42.8307C84.6565 45.3948 79.8154 45.4153 79.7539 42.8512H80.8821C80.759 44.3282 83.7744 44.2461 83.0975 42.7487C82.4206 41.2512 80.2257 42.0923 80.0001 40.5128C79.6513 38.1538 84.2872 37.9487 84.2872 40.4923L84.2667 40.5128Z" fill="#26469C"/>
<path d="M14.2153 38.7693V39.5898H11.3435V41.2308H13.8051V42.0513H11.3435V43.8975H14.2153V44.718H10.3179V38.7693H14.2153Z" fill="#23439A"/>
<path d="M85.7024 40.3281L86.5434 43.1794L87.487 40.3281C87.5485 40.2871 88.205 40.2871 88.3485 40.3281C88.4921 40.3692 88.5332 40.2666 88.4921 40.4717L86.6665 45.723C86.3178 46.3384 85.5178 46.7897 84.9229 46.2974V45.641C85.6203 45.7025 86.0306 45.3743 86.1332 44.6563L84.7178 40.3076H85.7434L85.7024 40.3281Z" fill="#25459B"/>
<path d="M57.2924 44.718H56.2668V41.3949C56.2668 41.0257 55.2821 40.9026 54.9334 41.1898C54.5847 41.4769 54.6257 41.559 54.6257 41.6V44.718C54.2975 44.6769 53.8463 44.8411 53.6001 44.5539V40.2872H54.6257L54.6668 40.6975C55.2206 40.0616 56.4309 39.9385 56.9847 40.6359C57.5386 41.3334 57.2924 41.1898 57.2924 41.2513V44.6975V44.718Z" fill="#25459B"/>
<path d="M46.01 38.7693V39.5898H44.1638V44.5539C43.8971 44.8411 43.4048 44.6565 43.0356 44.718V39.5898H41.1895V38.7693H46.01Z" fill="#25459B"/>
<path d="M61.7025 41.641H60.6769C60.7384 40.6359 58.9538 40.7795 59.241 41.6821C59.5282 42.5846 61.559 41.9692 61.682 43.241C61.9077 45.3333 58.0923 45.2923 58.0923 43.3026H58.9538C59.1179 43.3846 59.1179 43.6718 59.2615 43.8154C59.6307 44.1846 60.759 44.0821 60.759 43.4462C60.759 42.8103 58.5231 43.0564 58.2359 41.7641C57.8051 39.8564 61.7846 39.6103 61.682 41.6615L61.7025 41.641Z" fill="#26469C"/>
<path d="M92.2463 40.7589C92.4309 40.9845 92.5129 41.3537 92.4924 41.6409H91.6309C91.4463 41.5589 91.4668 41.2717 91.3232 41.1281C90.6668 40.5332 89.5796 41.4153 90.2155 41.8666C90.7899 42.2768 92.6155 42.0922 92.6155 43.446C92.6155 44.7999 88.8822 45.2307 88.9232 43.3025H89.9283C89.8257 44.2871 91.6514 44.205 91.5899 43.4666C91.5283 42.7281 89.0052 43.0153 89.0463 41.5384C89.0873 40.0614 91.4668 39.8563 92.2668 40.7794L92.2463 40.7589Z" fill="#25459B"/>
<path d="M38.8306 41.641H37.8049C37.928 40.6564 36.0818 40.7795 36.369 41.6821C36.6562 42.5846 39.1383 42.0513 38.8716 43.5898C38.5844 45.3128 35.1998 45.1487 35.2203 43.2821H36.0818C36.2459 43.3641 36.2459 43.6513 36.3895 43.7949C36.8818 44.2872 38.2767 43.8769 37.7844 43.2205C37.2921 42.5641 35.6101 42.9128 35.3639 41.7436C34.9742 39.8359 38.9126 39.5898 38.8101 41.641H38.8306Z" fill="#26469C"/>
<path d="M34.5227 41.641H33.6612C33.456 41.559 33.5176 40.9641 32.8201 40.9231C32.1227 40.882 31.774 41.5179 32.2253 41.8461C32.6765 42.1744 34.5842 42.0513 34.6047 43.4256C34.6253 44.8 30.8919 45.2103 30.933 43.282H31.9586C31.774 44.2051 33.5381 44.2051 33.5996 43.5282C33.6612 42.8513 31.3227 42.9949 31.0765 41.7436C30.6868 39.8564 34.6253 39.5692 34.5227 41.641Z" fill="#25459B"/>
<path d="M17.3126 40.328H18.4203C18.4203 40.3075 17.1895 42.4203 17.1895 42.4203L18.4203 44.7178C18.1536 44.6767 17.6203 44.7998 17.3946 44.6767C17.169 44.5537 16.6767 43.3024 16.5331 43.3024C15.8972 44.1229 15.9793 45.0255 14.6459 44.7383C14.4818 44.5947 15.8562 42.8716 15.8767 42.5229C15.8972 42.1742 14.5434 40.5126 14.7485 40.328L15.7741 40.3691L16.5331 41.6408L17.3331 40.328H17.3126Z" fill="#25459B"/>
<path d="M93.5998 41.0256H92.8818V40.3076H93.5998V39.1794H94.5639L94.6665 40.2051L95.4459 40.3076V41.0256H94.6254V43.6512C94.6254 43.6717 94.728 43.8974 94.7895 43.9179H95.4459V44.7384C94.9536 44.841 94.3588 44.923 93.969 44.5333C93.5793 44.1435 93.6203 43.8974 93.6203 43.7538V41.0461L93.5998 41.0256Z" fill="#28479D"/>
<path d="M75.446 41.0256H74.728V40.3076L75.405 40.2051L75.446 39.1794H76.3075L76.4101 40.2051L77.1896 40.3076V41.0256H76.3691V43.5282C76.3691 43.8564 76.9229 43.9589 77.1896 43.8769V44.6974C76.7383 44.7589 76.0203 44.8205 75.6921 44.4717C75.3639 44.123 75.446 44.0615 75.446 44.041V41.0051V41.0256Z" fill="#21429A"/>
<path d="M46.3179 40.3075H47.282L47.3845 40.6152C47.7333 40.2459 48.164 40.1434 48.6768 40.2049V41.2306C48.3692 41.0254 47.3435 41.2921 47.3435 41.7024V44.7383H46.3179V40.328V40.3075Z" fill="#29489D"/>
<path d="M72.0615 40.3076H72.9846L73.0256 40.7178C73.3743 40.2666 73.7436 40.123 74.3179 40.205V41.1281C74.0102 40.964 72.9846 41.4358 72.9846 41.6819V44.7178H72.0615V40.3076Z" fill="#214299"/>
<path d="M23.8564 40.3076H24.7795L24.8205 40.7178C25.1693 40.2666 25.5385 40.123 26.1129 40.205V41.1281C25.7847 41.046 24.7795 41.3127 24.7795 41.6819V44.7178H23.8564V40.3076Z" fill="#214299"/>
<path d="M20.1638 44.4101V46.3588H19.1382V40.3075H20.0613L20.1023 40.7178C21.1279 39.6921 22.5023 40.1844 22.8715 41.5383C23.4048 43.4665 22.2766 45.6408 20.1433 44.4101H20.1638Z" fill="#25459B"/>
<path d="M20.6559 41.0459C22.3995 40.6562 22.42 43.8972 21.0457 43.9998C19.6713 44.1023 20.2457 43.7741 20.1841 43.4459C20.1226 43.1177 20.1226 41.7639 20.1841 41.4972C20.2457 41.2306 20.4508 41.1075 20.6559 41.0459Z" fill="#FAFBFC"/>
<path d="M63.6511 44.4102V46.3589H62.6255V40.3076H63.5486L63.5896 40.7178C64.5127 39.6512 66.1537 40.3076 66.3793 41.6204C66.7075 43.6102 65.846 45.5384 63.6306 44.4102H63.6511Z" fill="#22439A"/>
<path d="M63.7949 43.7744C63.4052 43.4256 63.3437 41.3128 64.0616 41.0872C65.436 40.6564 65.7642 42.441 65.3539 43.4051C64.9437 44.3692 64.2872 44.2256 63.7949 43.7744Z" fill="#F6F7FB"/>
<path d="M52.7796 44.718C52.4924 44.677 52.0822 44.7796 51.8155 44.718C51.5488 44.6565 51.6924 44.4309 51.5899 44.4103C51.4873 44.3898 51.2822 44.6155 51.1386 44.677C49.0258 45.3744 48.1232 42.6668 50.1129 42.1129C52.1027 41.5591 51.1591 41.9488 51.6514 41.9693C51.754 40.8411 50.5437 40.6155 50.0309 41.5591H49.0873C49.2514 40.5539 50.1335 40.1642 51.0976 40.2257C53.5386 40.3898 52.3488 43.1591 52.7796 44.7385V44.718Z" fill="#26469C"/>
<path d="M51.6513 42.5642C51.6308 42.8309 51.6923 43.1796 51.6513 43.4258C51.5282 44.0822 49.8667 44.2668 50.0103 43.2206C50.1538 42.1745 51.159 42.4822 51.6513 42.5437V42.5642Z" fill="#F3F5F9"/>
<path d="M99.8564 42.7692H96.9846C97.2103 44.1026 98.318 44.3077 99.2821 43.4872L99.6923 43.7743C100.164 44.2872 98.3795 44.8205 97.9693 44.8C95.2821 44.7179 95.3026 40.1436 98.0718 40.1846C100.841 40.2256 100.021 41.4974 99.8564 42.7487V42.7692Z" fill="#24449B"/>
<path d="M98.8309 42.0511H97.0873C96.9848 40.6562 98.9745 40.6152 98.8309 42.0511Z" fill="#F8F9FB"/>
<path d="M30.4204 42.7693H27.5486C27.6307 44.1847 28.8614 44.2052 29.846 43.5078C30.8922 44.2052 29.2101 44.8206 28.5332 44.8206C25.764 44.7796 25.7845 40.1437 28.6358 40.2052C30.0922 40.2462 30.4409 41.5385 30.4204 42.7693Z" fill="#25459B"/>
<path d="M29.395 42.0515H27.5488C27.5899 40.6772 29.436 40.6156 29.395 42.0515Z" fill="#F9FAFC"/>
<path d="M68.7589 40.2462C71.9589 39.7949 72 44.7385 69.2307 44.8205C66.523 44.9026 66.441 40.5744 68.7589 40.2462Z" fill="#25459B"/>
<path d="M68.5128 43.7743C67.918 43.282 67.959 41.4358 68.718 41.1076C70.4411 40.3691 70.7898 43.7538 69.3334 43.9794C67.877 44.205 68.6769 43.8974 68.5128 43.7538V43.7743Z" fill="#FAFAFC"/>
</g>
<defs>
<clipPath id="clip0_187_899">
<rect width="157.538" height="48" fill="white"/>
</clipPath>
</defs>
</svg>
