<svg width="25" height="24" viewBox="0 0 25 24" fill="none" xmlns="http://www.w3.org/2000/svg">
<path d="M18.75 18.86H17.99C17.19 18.86 16.43 19.17 15.87 19.73L14.16 21.42C13.38 22.19 12.11 22.19 11.33 21.42L9.62 19.73C9.06 19.17 8.29 18.86 7.5 18.86H6.75C5.09 18.86 3.75 17.53 3.75 15.89V4.97998C3.75 3.33998 5.09 2.01001 6.75 2.01001H18.75C20.41 2.01001 21.75 3.33998 21.75 4.97998V15.89C21.75 17.52 20.41 18.86 18.75 18.86Z" stroke="#204198" stroke-width="1.5" stroke-miterlimit="10" stroke-linecap="round" stroke-linejoin="round"/>
<path d="M7.75 9.15979C7.75 8.22979 8.51 7.46973 9.44 7.46973C10.37 7.46973 11.13 8.22979 11.13 9.15979C11.13 11.0398 8.46 11.2398 7.87 13.0298C7.75 13.3998 8.06 13.7698 8.45 13.7698H11.13" stroke="#204198" stroke-width="1.5" stroke-linecap="round" stroke-linejoin="round"/>
<path d="M16.7898 13.7599V8.04991C16.7898 7.78991 16.6198 7.55985 16.3698 7.48985C16.1198 7.41985 15.8498 7.51985 15.7098 7.73985C14.9898 8.89985 14.2098 10.2199 13.5298 11.3799C13.4198 11.5699 13.4198 11.8199 13.5298 12.0099C13.6398 12.1999 13.8498 12.3198 14.0798 12.3198H17.7498" stroke="#204198" stroke-width="1.5" stroke-linecap="round" stroke-linejoin="round"/>
</svg>
