<svg width="16" height="16" viewBox="0 0 16 16" fill="none" xmlns="http://www.w3.org/2000/svg">
<path d="M10.7935 1.3335H5.20683C2.78016 1.3335 1.3335 2.78016 1.3335 5.20683V10.7868C1.3335 13.2202 2.78016 14.6668 5.20683 14.6668H10.7868C13.2135 14.6668 14.6602 13.2202 14.6602 10.7935V5.20683C14.6668 2.78016 13.2202 1.3335 10.7935 1.3335ZM10.6668 8.50016H8.50016V10.6668C8.50016 10.9402 8.2735 11.1668 8.00016 11.1668C7.72683 11.1668 7.50016 10.9402 7.50016 10.6668V8.50016H5.3335C5.06016 8.50016 4.8335 8.2735 4.8335 8.00016C4.8335 7.72683 5.06016 7.50016 5.3335 7.50016H7.50016V5.3335C7.50016 5.06016 7.72683 4.8335 8.00016 4.8335C8.2735 4.8335 8.50016 5.06016 8.50016 5.3335V7.50016H10.6668C10.9402 7.50016 11.1668 7.72683 11.1668 8.00016C11.1668 8.2735 10.9402 8.50016 10.6668 8.50016Z" fill="#204198"/>
</svg>
