<svg width="22" height="16" viewBox="0 0 22 16" fill="none" xmlns="http://www.w3.org/2000/svg">
<path d="M5.75 15.125C6.99264 15.125 8 14.1176 8 12.875C8 11.6324 6.99264 10.625 5.75 10.625C4.50736 10.625 3.5 11.6324 3.5 12.875C3.5 14.1176 4.50736 15.125 5.75 15.125Z" fill="#333333"/>
<path d="M16.25 15.125C17.4926 15.125 18.5 14.1176 18.5 12.875C18.5 11.6324 17.4926 10.625 16.25 10.625C15.0074 10.625 14 11.6324 14 12.875C14 14.1176 15.0074 15.125 16.25 15.125Z" fill="#333333"/>
<path d="M21.395 6.4925L19.145 2.7425C19.01 2.51 18.7625 2.375 18.5 2.375H14.75C14.3375 2.375 14 2.7125 14 3.125V6.875H1.25C0.8375 6.875 0.5 7.2125 0.5 7.625V12.125C0.5 12.5375 0.8375 12.875 1.25 12.875H2.75C2.75 11.2175 4.0925 9.875 5.75 9.875C7.4075 9.875 8.75 11.2175 8.75 12.875H13.25C13.25 12.089 13.5598 11.378 14.0563 10.8433C14.1598 10.7315 14.2723 10.628 14.3923 10.5328C14.4305 10.5028 14.468 10.4712 14.5078 10.4427C14.6375 10.349 14.7762 10.268 14.9202 10.196C14.9517 10.1802 14.9803 10.16 15.0125 10.1458C15.3898 9.974 15.8075 9.87575 16.2507 9.87575C17.9082 9.87575 19.2507 11.2182 19.2507 12.8757H20.7507C21.1632 12.8757 21.5007 12.5382 21.5007 12.1257V6.87575C21.5 6.74 21.4625 6.605 21.395 6.4925Z" fill="#333333"/>
<path d="M7.25 3.875C7.25 3.4625 6.9125 3.125 6.5 3.125H2.75C2.3375 3.125 2 3.4625 2 3.875V6.125H7.25V3.875Z" fill="#333333"/>
<path d="M13.25 1.625C13.25 1.2125 12.9125 0.875 12.5 0.875H8.75C8.3375 0.875 8 1.2125 8 1.625V6.125H13.25V1.625Z" fill="#333333"/>
</svg>
