<svg width="22" height="22" viewBox="0 0 22 22" fill="none" xmlns="http://www.w3.org/2000/svg">
<path d="M7.385 18.5C7.295 18.7325 7.25 18.9875 7.25 19.25C7.25 20.4875 8.2625 21.5 9.5 21.5C10.7375 21.5 11.75 20.4875 11.75 19.25C11.75 18.9875 11.705 18.7325 11.615 18.5H7.385Z" fill="#333333"/>
<path d="M16.385 18.5C16.295 18.7325 16.25 18.9875 16.25 19.25C16.25 20.4875 17.2625 21.5 18.5 21.5C19.7375 21.5 20.75 20.4875 20.75 19.25C20.75 18.9875 20.705 18.7325 20.615 18.5H16.385Z" fill="#333333"/>
<path d="M20.75 16.25H7.12925L4.988 4.1195C4.925 3.76175 4.61375 3.5 4.25 3.5H1.25C0.83525 3.5 0.5 3.83525 0.5 4.25C0.5 4.66475 0.83525 5 1.25 5H3.62075L5.76125 17.1305C5.825 17.4882 6.13625 17.75 6.5 17.75H20.75C21.1647 17.75 21.5 17.4147 21.5 17C21.5 16.5853 21.1647 16.25 20.75 16.25Z" fill="#333333"/>
<path d="M19.5123 15.5L20.7423 8.12C20.7798 7.9025 20.7123 7.685 20.5698 7.5125C20.4273 7.3475 20.2173 7.25 19.9998 7.25H7.99979C7.78229 7.25 7.57229 7.3475 7.42979 7.5125C7.28729 7.685 7.21979 7.9025 7.25729 8.12L8.48729 15.5H19.5123ZM15.4998 11C15.4998 10.5853 15.835 10.25 16.2498 10.25C16.6645 10.25 16.9998 10.5853 16.9998 11V12.5C16.9998 12.9147 16.6645 13.25 16.2498 13.25C15.835 13.25 15.4998 12.9147 15.4998 12.5V11ZM13.2498 11C13.2498 10.5853 13.585 10.25 13.9998 10.25C14.4145 10.25 14.7498 10.5853 14.7498 11V12.5C14.7498 12.9147 14.4145 13.25 13.9998 13.25C13.585 13.25 13.2498 12.9147 13.2498 12.5V11ZM10.9998 11C10.9998 10.5853 11.335 10.25 11.7498 10.25C12.1645 10.25 12.4998 10.5853 12.4998 11V12.5C12.4998 12.9147 12.1645 13.25 11.7498 13.25C11.335 13.25 10.9998 12.9147 10.9998 12.5V11Z" fill="#333333"/>
<path d="M19.25 1.25C19.25 0.8375 18.9125 0.5 18.5 0.5H16.25V2.75C16.25 3.01025 16.115 3.251 15.8937 3.38825C15.7737 3.4625 15.6372 3.5 15.5 3.5C15.3853 3.5 15.2705 3.47375 15.1647 3.42125L14 2.8385L12.8353 3.4205C12.602 3.53525 12.326 3.5255 12.1055 3.3875C11.885 3.251 11.75 3.01025 11.75 2.75V0.5H9.5C9.0875 0.5 8.75 0.8375 8.75 1.25V6.5H19.25V1.25Z" fill="#333333"/>
</svg>
