<svg width="18" height="22" viewBox="0 0 18 22" fill="none" xmlns="http://www.w3.org/2000/svg">
<path d="M14.25 14C12.1823 14 10.5 15.6823 10.5 17.75C10.5 19.8177 12.1823 21.5 14.25 21.5C16.3177 21.5 18 19.8177 18 17.75C18 15.6823 16.3177 14 14.25 14ZM15.9053 17.5303L14.4053 19.0303C14.259 19.1765 14.067 19.25 13.875 19.25C13.683 19.25 13.491 19.1765 13.3447 19.0303L12.5947 18.2803C12.3015 17.987 12.3015 17.513 12.5947 17.2197C12.888 16.9265 13.362 16.9265 13.6553 17.2197L13.875 17.4395L14.8447 16.4697C15.138 16.1765 15.612 16.1765 15.9053 16.4697C16.1985 16.763 16.1985 17.237 15.9053 17.5303Z" fill="#333333"/>
<path d="M14.25 13.25C14.505 13.25 14.76 13.2725 15 13.3175V7.25C15 6.8375 14.6625 6.5 14.25 6.5H8.25V8.75C8.25 9.16475 7.914 9.5 7.5 9.5C7.086 9.5 6.75 9.16475 6.75 8.75V6.5H0.75C0.3375 6.5 0 6.8375 0 7.25V17.75C0 18.1625 0.3375 18.5 0.75 18.5H9.8175C9.7725 18.26 9.75 18.005 9.75 17.75C9.75 15.2675 11.7675 13.25 14.25 13.25Z" fill="#333333"/>
<path d="M6.7499 5.75V0.5H2.2499C1.9049 0.5 1.6049 0.7325 1.5224 1.07L0.337402 5.81C0.464902 5.7725 0.607402 5.75 0.749902 5.75H6.7499Z" fill="#333333"/>
<path d="M14.6625 5.81L13.4775 1.07C13.395 0.7325 13.095 0.5 12.75 0.5H8.25V5.75H14.25C14.3925 5.75 14.535 5.7725 14.6625 5.81Z" fill="#333333"/>
</svg>
