<svg width="18" height="22" viewBox="0 0 18 22" fill="none" xmlns="http://www.w3.org/2000/svg">
<path d="M14.25 13.75C12.1823 13.75 10.5 15.4323 10.5 17.5C10.5 19.5677 12.1823 21.25 14.25 21.25C16.3177 21.25 18 19.5677 18 17.5C18 15.4323 16.3177 13.75 14.25 13.75ZM15.9053 17.2803L14.4053 18.7803C14.259 18.9265 14.067 19 13.875 19C13.683 19 13.491 18.9265 13.3447 18.7803L12.5947 18.0303C12.3015 17.737 12.3015 17.263 12.5947 16.9697C12.888 16.6765 13.362 16.6765 13.6553 16.9697L13.875 17.1895L14.8447 16.2197C15.138 15.9265 15.612 15.9265 15.9053 16.2197C16.1985 16.513 16.1985 16.987 15.9053 17.2803Z" fill="#005736"/>
<path d="M14.25 13C14.505 13 14.76 13.0225 15 13.0675V7C15 6.5875 14.6625 6.25 14.25 6.25H8.25V8.5C8.25 8.91475 7.914 9.25 7.5 9.25C7.086 9.25 6.75 8.91475 6.75 8.5V6.25H0.75C0.3375 6.25 0 6.5875 0 7V17.5C0 17.9125 0.3375 18.25 0.75 18.25H9.8175C9.7725 18.01 9.75 17.755 9.75 17.5C9.75 15.0175 11.7675 13 14.25 13Z" fill="#005736"/>
<path d="M6.7499 5.5V0.25H2.2499C1.9049 0.25 1.6049 0.4825 1.5224 0.82L0.337402 5.56C0.464902 5.5225 0.607402 5.5 0.749902 5.5H6.7499Z" fill="#005736"/>
<path d="M14.6625 5.56L13.4775 0.82C13.395 0.4825 13.095 0.25 12.75 0.25H8.25V5.5H14.25C14.3925 5.5 14.535 5.5225 14.6625 5.56Z" fill="#005736"/>
</svg>
