<svg width="18" height="22" viewBox="0 0 18 22" fill="none" xmlns="http://www.w3.org/2000/svg">
<path d="M4.5 7.25H10.5C10.9148 7.25 11.25 6.914 11.25 6.5V3.5C11.25 3.086 10.9148 2.75 10.5 2.75H4.5C4.08525 2.75 3.75 3.086 3.75 3.5V6.5C3.75 6.914 4.08525 7.25 4.5 7.25Z" fill="#204198"/>
<path d="M8.25 1.25C8.25 0.8375 7.9125 0.5 7.5 0.5C7.0875 0.5 6.75 0.8375 6.75 1.25V2H8.25V1.25Z" fill="#204198"/>
<path d="M14.25 13.25C14.505 13.25 14.76 13.2725 15 13.3175V5C15 4.5875 14.6625 4.25 14.25 4.25H12V6.5C12 7.325 11.325 8 10.5 8H4.5C3.675 8 3 7.325 3 6.5V4.25H0.75C0.3375 4.25 0 4.5875 0 5V18.5C0 18.9125 0.3375 19.25 0.75 19.25H10.0125C9.84 18.7775 9.75 18.275 9.75 17.75C9.75 15.2675 11.7675 13.25 14.25 13.25ZM3.75 9.5H6.75C7.16475 9.5 7.5 9.836 7.5 10.25C7.5 10.664 7.16475 11 6.75 11H3.75C3.33525 11 3 10.664 3 10.25C3 9.836 3.33525 9.5 3.75 9.5ZM3.75 11.75H9C9.41475 11.75 9.75 12.0852 9.75 12.5C9.75 12.9148 9.41475 13.25 9 13.25H3.75C3.33525 13.25 3 12.9148 3 12.5C3 12.0852 3.33525 11.75 3.75 11.75ZM9 15.5H3.75C3.33525 15.5 3 15.1648 3 14.75C3 14.3352 3.33525 14 3.75 14H9C9.41475 14 9.75 14.3352 9.75 14.75C9.75 15.1648 9.41475 15.5 9 15.5Z" fill="#204198"/>
<path d="M14.25 14C12.1823 14 10.5 15.6823 10.5 17.75C10.5 19.8177 12.1823 21.5 14.25 21.5C16.3177 21.5 18 19.8177 18 17.75C18 15.6823 16.3177 14 14.25 14ZM15.6713 17.3353L14.9213 18.8353C14.8133 19.0505 14.6085 19.2012 14.3707 19.2402C14.3295 19.247 14.2898 19.25 14.25 19.25C14.0528 19.25 13.8607 19.172 13.7197 19.0303L12.9697 18.2803C12.6765 17.987 12.6765 17.513 12.9697 17.2197C13.263 16.9265 13.737 16.9265 14.0303 17.2197L14.0445 17.234L14.3295 16.6647C14.5148 16.2942 14.9655 16.145 15.336 16.3295C15.7057 16.5148 15.8565 16.9648 15.6713 17.3353Z" fill="#204198"/>
</svg>
