<svg width="25" height="24" viewBox="0 0 25 24" fill="none" xmlns="http://www.w3.org/2000/svg">
<path d="M17.75 9C17.75 12.87 14.39 16 10.25 16L9.32001 17.12L8.77 17.78C8.3 18.34 7.4 18.22 7.09 17.55L5.75 14.6C3.93 13.32 2.75 11.29 2.75 9C2.75 5.13 6.11 2 10.25 2C13.27 2 15.88 3.67001 17.05 6.07001C17.5 6.96001 17.75 7.95 17.75 9Z" stroke="#204198" stroke-width="1.5" stroke-linecap="round" stroke-linejoin="round"/>
<path d="M22.7498 12.86C22.7498 15.15 21.5698 17.1801 19.7498 18.4601L18.4098 21.41C18.0998 22.08 17.1998 22.2101 16.7298 21.6401L15.2498 19.86C12.8298 19.86 10.6698 18.7901 9.31982 17.1201L10.2498 16.0001C14.3898 16.0001 17.7498 12.8701 17.7498 9.00006C17.7498 7.95006 17.4998 6.96007 17.0498 6.07007C20.3198 6.82007 22.7498 9.58005 22.7498 12.86Z" stroke="#204198" stroke-width="1.5" stroke-linecap="round" stroke-linejoin="round"/>
<path d="M7.75 9H12.75" stroke="#204198" stroke-width="1.5" stroke-linecap="round" stroke-linejoin="round"/>
</svg>
