<svg width="25" height="24" viewBox="0 0 25 24" fill="none" xmlns="http://www.w3.org/2000/svg">
<path d="M12.7701 2.90991C9.46009 2.90991 6.77009 5.59991 6.77009 8.90991V11.7999C6.77009 12.4099 6.51009 13.3399 6.20009 13.8599L5.05009 15.7699C4.34009 16.9499 4.83009 18.2599 6.13009 18.6999C10.4401 20.1399 15.0901 20.1399 19.4001 18.6999C20.6101 18.2999 21.1401 16.8699 20.4801 15.7699L19.3301 13.8599C19.0301 13.3399 18.7701 12.4099 18.7701 11.7999V8.90991C18.7701 5.60991 16.0701 2.90991 12.7701 2.90991Z" stroke="#204198" stroke-width="1.5" stroke-miterlimit="10" stroke-linecap="round"/>
<path d="M14.6199 3.19994C14.3099 3.10994 13.9899 3.03994 13.6599 2.99994C12.6999 2.87994 11.7799 2.94994 10.9199 3.19994C11.2099 2.45994 11.9299 1.93994 12.7699 1.93994C13.6099 1.93994 14.3299 2.45994 14.6199 3.19994Z" stroke="#204198" stroke-width="1.5" stroke-miterlimit="10" stroke-linecap="round" stroke-linejoin="round"/>
<path d="M15.77 19.0601C15.77 20.7101 14.42 22.0601 12.77 22.0601C11.95 22.0601 11.19 21.7201 10.65 21.1801C10.11 20.6401 9.77002 19.8801 9.77002 19.0601" stroke="#204198" stroke-width="1.5" stroke-miterlimit="10"/>
</svg>
