<svg width="80" height="80" viewBox="0 0 80 80" fill="none" xmlns="http://www.w3.org/2000/svg">
<path d="M74.3825 34.8787C74.0763 26.1524 70.5425 17.9924 64.3375 11.7874C57.8338 5.28242 49.19 1.70117 40 1.70117C21.4388 1.70117 6.27252 16.4749 5.61877 34.8787C2.78627 36.1374 0.803772 38.9724 0.803772 42.2674V51.3449C0.803772 55.8024 4.43002 59.4299 8.88877 59.4299C11.7738 59.4299 14.12 57.0837 14.12 54.1987V39.4124C14.12 36.7037 12.0425 34.4949 9.40127 34.2324C10.3763 18.1987 23.7238 5.45117 40 5.45117C48.19 5.45117 55.8913 8.64367 61.6875 14.4399C67.01 19.7624 70.125 26.6999 70.5938 34.2337C67.955 34.4987 65.8813 36.7062 65.8813 39.4124V54.1974C65.8813 56.9287 67.9913 59.1512 70.6638 59.3824V63.1187C70.6638 67.3262 67.24 70.7487 63.0325 70.7487H57.3813C57.1038 69.9562 56.6688 69.2237 56.0588 68.6162C54.99 67.5424 53.565 66.9512 52.0475 66.9512H46.2225C45.3863 66.9512 44.5838 67.1287 43.8488 67.4712C41.8438 68.3924 40.5488 70.4149 40.5488 72.6237C40.5488 74.1412 41.14 75.5662 42.2113 76.6324C43.2825 77.7062 44.7075 78.2974 46.2225 78.2974H52.0475C54.4625 78.2974 56.5913 76.7362 57.385 74.4987H63.0325C69.3088 74.4987 74.4138 69.3937 74.4138 63.1187V58.7149C77.2288 57.4487 79.1963 54.6237 79.1963 51.3424V42.2649C79.1963 38.9724 77.2138 36.1374 74.3825 34.8787ZM10.3688 39.4124V54.1974C10.3688 55.0137 9.70502 55.6787 8.88752 55.6787C6.49752 55.6787 4.55252 53.7337 4.55252 51.3437V42.2662C4.55252 39.8749 6.49752 37.9312 8.88752 37.9312C9.70502 37.9312 10.3688 38.5962 10.3688 39.4124ZM53.9288 73.0262C53.7425 73.9087 52.95 74.5499 52.0463 74.5499H46.2213C45.7088 74.5499 45.2275 74.3499 44.86 73.9824C44.4975 73.6212 44.2975 73.1387 44.2975 72.6262C44.2975 71.8774 44.7363 71.1937 45.4238 70.8774C45.6688 70.7624 45.9375 70.7037 46.2213 70.7037H52.0463C52.5588 70.7037 53.04 70.9024 53.4063 71.2699C53.7688 71.6312 53.9688 72.1137 53.9688 72.6262C53.97 72.7637 53.955 72.9012 53.9288 73.0262ZM75.4463 51.3437C75.4463 53.7337 73.5013 55.6787 71.1113 55.6787C70.295 55.6787 69.63 55.0149 69.63 54.1974V39.4124C69.63 38.5962 70.2938 37.9312 71.1113 37.9312C73.5013 37.9312 75.4463 39.8762 75.4463 42.2662V51.3437Z" fill="#FDD303"/>
<path d="M52.1413 51.9899C56.5225 51.9899 60.0863 48.4249 60.0863 44.0449V27.8561C60.0863 25.7386 59.2588 23.7436 57.7563 22.2411C56.2538 20.7386 54.26 19.9111 52.1413 19.9111H27.8588C23.4775 19.9111 19.9138 23.4749 19.9138 27.8561V44.0449C19.9138 48.4261 23.4775 51.9899 27.8588 51.9899H28.0075V56.1849C28.0075 57.7849 28.9613 59.2049 30.4363 59.8036C30.9125 59.9949 31.4075 60.0899 31.8975 60.0899C32.9188 60.0899 33.9138 59.6849 34.6425 58.9311L41.6213 51.9899H52.1413ZM39.5275 48.7849L31.975 56.2961C31.9413 56.3311 31.9163 56.3574 31.845 56.3261C31.7588 56.2911 31.7588 56.2349 31.7588 56.1849V50.1149C31.7588 49.0799 30.92 48.2399 29.8838 48.2399H27.86C25.5463 48.2399 23.665 46.3574 23.665 44.0449V27.8561C23.665 25.5424 25.5463 23.6611 27.86 23.6611H52.1425C53.26 23.6611 54.3113 24.0986 55.1063 24.8924C55.9013 25.6874 56.3375 26.7399 56.3375 27.8561V44.0449C56.3375 46.3586 54.455 48.2399 52.1425 48.2399H40.85C40.3538 48.2399 39.8788 48.4361 39.5275 48.7849Z" fill="#FDD303"/>
<path d="M30.8912 33.4836C29.3662 33.4836 28.125 34.7261 28.125 36.2499C28.125 37.7736 29.3675 39.0161 30.8912 39.0161C32.4175 39.0161 33.66 37.7736 33.66 36.2499C33.66 34.7261 32.4187 33.4836 30.8912 33.4836Z" fill="#FDD303"/>
<path d="M39.9988 33.4836C38.4738 33.4836 37.2325 34.7261 37.2325 36.2499C37.2325 37.7736 38.475 39.0161 39.9988 39.0161C41.5263 39.0161 42.7675 37.7736 42.7675 36.2499C42.7675 34.7261 41.5263 33.4836 39.9988 33.4836Z" fill="#FDD303"/>
<path d="M49.1063 33.4836C47.5813 33.4836 46.34 34.7261 46.34 36.2499C46.34 37.7736 47.5825 39.0161 49.1063 39.0161C50.6325 39.0161 51.875 37.7736 51.875 36.2499C51.875 34.7261 50.6325 33.4836 49.1063 33.4836Z" fill="#FDD303"/>
</svg>
